<svg xmlns="http://www.w3.org/2000/svg" width="400" height="300" viewBox="0 0 400 300"><rect width="100%" height="100%" fill="#DDDDDD"/><path fill="#808080" d="M95.665 156.235h15.18l-5.8-15.87q-.43-1.06-.9-2.51-.46-1.45-.92-3.13-.43 1.68-.89 3.15t-.89 2.55l-5.78 15.81Zm12.11-29.7 18.75 47.72h-6.87q-1.15 0-1.88-.58-.72-.58-1.09-1.43l-3.56-9.74h-19.77l-3.56 9.74q-.26.76-1.02 1.38-.76.63-1.88.63h-6.93l18.77-47.72h9.04Zm44.92 17.52-1.85 2.94q-.33.53-.69.74-.37.22-.93.22-.59 0-1.27-.33-.67-.33-1.57-.74-.89-.42-2.02-.75-1.14-.33-2.69-.33-2.41 0-3.78 1.03-1.37 1.02-1.37 2.67 0 1.09.71 1.83t1.88 1.3q1.17.57 2.65 1.01 1.49.45 3.02.97 1.54.53 3.02 1.21 1.49.68 2.66 1.72 1.17 1.03 1.88 2.49.71 1.45.71 3.5 0 2.44-.87 4.5-.88 2.06-2.59 3.56-1.72 1.5-4.24 2.35-2.53.84-5.83.84-1.75 0-3.41-.32-1.67-.31-3.21-.87-1.53-.56-2.83-1.32-1.31-.76-2.3-1.65l1.88-3.1q.37-.56.86-.86.5-.3 1.26-.3.75 0 1.43.43.68.43 1.57.93.89.49 2.09.92 1.21.43 3.06.43 1.45 0 2.49-.35 1.04-.34 1.71-.91.68-.56.99-1.3.32-.74.32-1.53 0-1.19-.71-1.95t-1.88-1.32q-1.17-.56-2.68-1.01-1.5-.44-3.06-.97-1.57-.53-3.07-1.24-1.51-.71-2.68-1.8-1.17-1.08-1.88-2.67-.71-1.58-.71-3.83 0-2.08.83-3.96.82-1.88 2.42-3.28t4-2.24q2.39-.85 5.52-.85 3.5 0 6.37 1.16 2.87 1.15 4.79 3.03Zm24.38 21.45v-5.7q-3.53.16-5.94.61-2.4.44-3.86 1.13-1.45.7-2.08 1.62-.62.93-.62 2.01 0 2.15 1.27 3.07 1.27.93 3.31.93 2.51 0 4.34-.91 1.84-.91 3.58-2.76Zm-17.22-17.78-1.45-2.61q5.84-5.34 14.05-5.34 2.97 0 5.32.97 2.34.97 3.96 2.7 1.61 1.74 2.46 4.15.84 2.4.84 5.28v21.38h-3.7q-1.15 0-1.78-.35-.63-.34-.99-1.4l-.73-2.44q-1.28 1.15-2.5 2.03-1.23.87-2.55 1.47-1.32.59-2.82.9-1.5.32-3.31.32-2.15 0-3.96-.58-1.82-.58-3.14-1.73-1.32-1.16-2.04-2.87-.73-1.72-.73-4 0-1.28.43-2.55.43-1.27 1.4-2.43.97-1.15 2.53-2.18 1.55-1.02 3.81-1.78t5.26-1.24q3-.47 6.86-.57v-1.98q0-3.4-1.45-5.04-1.45-1.63-4.19-1.63-1.98 0-3.28.46-1.31.46-2.3 1.04-.99.58-1.79 1.04-.81.46-1.8.46-.86 0-1.45-.44-.6-.45-.96-1.04Zm32.83-22.51h8.15v28.08h1.52q.83 0 1.31-.21.47-.21.97-.87l8.41-10.4q.53-.69 1.18-1.06.64-.36 1.66-.36h7.46l-10.53 12.57q-1.12 1.49-2.44 2.28.69.5 1.24 1.16.54.66 1.04 1.42l11.28 16.43h-7.35q-.96 0-1.65-.31-.7-.32-1.16-1.14l-8.65-12.84q-.46-.76-.95-.99-.5-.23-1.49-.23h-1.85v15.51h-8.15v-49.04Zm56.3 15.18h8.15v33.86h-4.98q-1.62 0-2.05-1.49l-.56-2.7q-2.08 2.11-4.58 3.41-2.51 1.31-5.91 1.31-2.77 0-4.9-.94-2.13-.94-3.58-2.66-1.45-1.72-2.2-4.07-.74-2.36-.74-5.2v-21.52h8.15v21.52q0 3.1 1.44 4.8 1.43 1.7 4.3 1.7 2.12 0 3.96-.94 1.85-.94 3.5-2.59v-24.49Zm38.71 3.66-1.85 2.94q-.33.53-.69.74-.36.22-.92.22-.6 0-1.27-.33-.68-.33-1.57-.74-.89-.42-2.03-.75-1.14-.33-2.69-.33-2.41 0-3.78 1.03-1.37 1.02-1.37 2.67 0 1.09.71 1.83t1.88 1.3q1.17.57 2.66 1.01 1.48.45 3.02.97 1.53.53 3.02 1.21 1.48.68 2.65 1.72 1.17 1.03 1.88 2.49.71 1.45.71 3.5 0 2.44-.87 4.5-.88 2.06-2.59 3.56-1.72 1.5-4.24 2.35-2.53.84-5.83.84-1.75 0-3.41-.32-1.67-.31-3.2-.87-1.54-.56-2.84-1.32-1.3-.76-2.29-1.65l1.88-3.1q.36-.56.85-.86.5-.3 1.26-.3t1.43.43q.68.43 1.57.93.89.49 2.1.92 1.2.43 3.05.43 1.45 0 2.49-.35 1.04-.34 1.72-.91.67-.56.99-1.3.31-.74.31-1.53 0-1.19-.71-1.95t-1.88-1.32q-1.17-.56-2.67-1.01-1.5-.44-3.07-.97-1.57-.53-3.07-1.24-1.5-.71-2.67-1.8-1.18-1.08-1.88-2.67-.71-1.58-.71-3.83 0-2.08.82-3.96.83-1.88 2.43-3.28t3.99-2.24q2.39-.85 5.53-.85 3.5 0 6.37 1.16 2.87 1.15 4.78 3.03Zm24.39 21.45v-5.7q-3.53.16-5.94.61-2.41.44-3.86 1.13-1.45.7-2.08 1.62-.63.93-.63 2.01 0 2.15 1.27 3.07 1.27.93 3.32.93 2.51 0 4.34-.91t3.58-2.76Zm-17.23-17.78-1.45-2.61q5.84-5.34 14.06-5.34 2.97 0 5.31.97 2.34.97 3.96 2.7 1.62 1.74 2.46 4.15.84 2.4.84 5.28v21.38h-3.7q-1.15 0-1.78-.35-.62-.34-.99-1.4l-.72-2.44q-1.29 1.15-2.51 2.03-1.22.87-2.54 1.47-1.32.59-2.82.9-1.5.32-3.32.32-2.14 0-3.96-.58-1.81-.58-3.14-1.73-1.31-1.16-2.04-2.87-.73-1.72-.73-4 0-1.28.43-2.55.43-1.27 1.4-2.43.98-1.15 2.53-2.18 1.55-1.02 3.81-1.78t5.26-1.24q3.01-.47 6.87-.57v-1.98q0-3.4-1.45-5.04-1.46-1.63-4.19-1.63-1.98 0-3.29.46-1.3.46-2.29 1.04-.99.58-1.8 1.04-.81.46-1.8.46-.86 0-1.45-.44-.59-.45-.96-1.04Z"/></svg>