<svg xmlns="http://www.w3.org/2000/svg" width="400" height="300" viewBox="0 0 400 300"><rect width="100%" height="100%" fill="#DDDDDD"/><path fill="#808080" d="M108.49 187.8h19.58q5.4 0 9.07-1.3 3.68-1.29 5.87-3.45 2.2-2.16 3.17-5.04.97-2.88.97-6.12 0-3.39-1.08-6.09-1.08-2.7-3.38-4.6-2.31-1.91-5.94-2.92-3.64-1.01-8.75-1.01h-19.51v30.53Zm16.49-74.02h-16.49v30.1h15.41q9.93 0 15.01-3.6 5.07-3.6 5.07-11.45 0-8.13-4.6-11.59-4.61-3.46-14.4-3.46ZM89.12 98.81h35.86q10.22 0 17.49 1.94 7.27 1.95 11.92 5.55 4.64 3.6 6.8 8.71 2.16 5.11 2.16 11.52 0 3.67-1.08 7.02-1.08 3.35-3.35 6.26-2.26 2.92-5.76 5.29-3.49 2.38-8.31 4.04 21.45 4.82 21.45 23.18 0 6.62-2.52 12.24t-7.34 9.68q-4.82 4.07-11.88 6.38-7.06 2.3-16.13 2.3H89.12V98.81Zm131.04 85.03v-12.46q-7.7.36-12.96 1.34-5.26.97-8.42 2.48-3.17 1.51-4.54 3.53-1.37 2.01-1.37 4.39 0 4.68 2.77 6.7 2.78 2.01 7.24 2.01 5.47 0 9.47-1.98 3.99-1.98 7.81-6.01Zm-37.58-38.81-3.17-5.69q12.74-11.66 30.67-11.66 6.48 0 11.59 2.12 5.11 2.13 8.64 5.91 3.53 3.78 5.37 9.03 1.83 5.26 1.83 11.52v46.66h-8.06q-2.52 0-3.89-.76-1.37-.75-2.16-3.06l-1.58-5.32q-2.81 2.52-5.48 4.42-2.66 1.91-5.54 3.21-2.88 1.29-6.16 1.98-3.27.68-7.23.68-4.68 0-8.64-1.26-3.96-1.26-6.84-3.78-2.88-2.52-4.47-6.26-1.58-3.75-1.58-8.71 0-2.81.94-5.58.93-2.78 3.06-5.3 2.12-2.52 5.5-4.75 3.39-2.23 8.32-3.89 4.93-1.65 11.48-2.7 6.56-1.04 14.98-1.26v-4.32q0-7.41-3.17-10.98-3.17-3.56-9.14-3.56-4.32 0-7.17 1.01-2.84 1.01-5 2.27t-3.92 2.26q-1.77 1.01-3.93 1.01-1.87 0-3.17-.97-1.29-.97-2.08-2.27Zm71.85-49.1h17.79v106.99h-17.79V95.93Zm36.15 33.12h17.85v73.87h-17.85v-73.87Zm20.3-21.53q0 2.3-.94 4.32-.93 2.02-2.48 3.53-1.55 1.51-3.64 2.41-2.08.9-4.46.9-2.3 0-4.36-.9-2.05-.9-3.56-2.41-1.51-1.51-2.41-3.53-.9-2.02-.9-4.32 0-2.38.9-4.46.9-2.09 2.41-3.6 1.51-1.52 3.56-2.42 2.06-.9 4.36-.9 2.38 0 4.46.9 2.09.9 3.64 2.42 1.55 1.51 2.48 3.6.94 2.08.94 4.46Z"/></svg>