<svg xmlns="http://www.w3.org/2000/svg" width="400" height="300" viewBox="0 0 400 300"><rect width="100%" height="100%" fill="#DDDDDD"/><path fill="#808080" d="M107.445 159.845q.55 0 .98.43l2.65 2.87q-2.2 2.73-5.42 4.18-3.21 1.45-7.71 1.45-4.02 0-7.24-1.38-3.21-1.37-5.48-3.82-2.28-2.45-3.49-5.85-1.21-3.4-1.21-7.42 0-4.08 1.3-7.47 1.3-3.39 3.66-5.84 2.36-2.45 5.64-3.81 3.27-1.36 7.25-1.36 3.95 0 7.01 1.3 3.06 1.3 5.21 3.4l-2.25 3.12q-.2.3-.51.53-.31.22-.86.22-.38 0-.78-.21t-.87-.52q-.48-.32-1.1-.69-.63-.38-1.45-.69-.83-.31-1.92-.52-1.08-.22-2.51-.22-2.42 0-4.44.87-2.01.86-3.46 2.5-1.45 1.63-2.25 4-.8 2.36-.8 5.39 0 3.04.86 5.42.87 2.37 2.34 4 1.48 1.62 3.48 2.49 2 .86 4.3.86 1.37 0 2.48-.15 1.12-.15 2.05-.48.94-.32 1.78-.83.84-.52 1.66-1.27.25-.22.53-.36.27-.14.57-.14Zm18.63-17.52q2.85 0 5.19.92 2.33.93 4 2.63 1.66 1.7 2.56 4.15.9 2.45.9 5.47 0 3.05-.9 5.5t-2.56 4.18q-1.67 1.72-4 2.65-2.34.93-5.19.93-2.88 0-5.23-.93-2.35-.93-4.01-2.65-1.66-1.73-2.57-4.18-.92-2.45-.92-5.5 0-3.02.92-5.47.91-2.45 2.57-4.15 1.66-1.7 4.01-2.63 2.35-.92 5.23-.92Zm0 21.67q3.2 0 4.73-2.15 1.54-2.15 1.54-6.3t-1.54-6.32q-1.53-2.18-4.73-2.18-3.25 0-4.81 2.19-1.57 2.19-1.57 6.31 0 4.13 1.57 6.29 1.56 2.16 4.81 2.16Zm17.45-32.77h6.17v37.15h-6.17v-37.15Zm23.7 11.1q2.85 0 5.19.92 2.33.93 4 2.63 1.66 1.7 2.56 4.15.9 2.45.9 5.47 0 3.05-.9 5.5t-2.56 4.18q-1.67 1.72-4 2.65-2.34.93-5.19.93-2.88 0-5.23-.93-2.35-.93-4.01-2.65-1.66-1.73-2.57-4.18-.92-2.45-.92-5.5 0-3.02.92-5.47.91-2.45 2.57-4.15 1.66-1.7 4.01-2.63 2.35-.92 5.23-.92Zm0 21.67q3.2 0 4.74-2.15 1.53-2.15 1.53-6.3t-1.53-6.32q-1.54-2.18-4.74-2.18-3.25 0-4.81 2.19-1.57 2.19-1.57 6.31 0 4.13 1.57 6.29 1.56 2.16 4.81 2.16Zm34.42-18.5-1.4 2.23q-.25.4-.52.56-.28.16-.7.16-.45 0-.96-.25-.52-.25-1.19-.56-.68-.31-1.54-.56-.86-.25-2.04-.25-1.82 0-2.86.77-1.04.78-1.04 2.03 0 .82.54 1.39.54.56 1.43.98.88.43 2.01.77 1.12.33 2.29.73 1.16.4 2.28.92 1.13.51 2.02 1.3.88.78 1.42 1.88.54 1.1.54 2.65 0 1.85-.66 3.42-.67 1.56-1.97 2.7-1.3 1.13-3.21 1.77-1.91.64-4.41.64-1.33 0-2.59-.24-1.26-.24-2.42-.66-1.17-.43-2.15-1-.99-.58-1.74-1.25l1.42-2.35q.28-.43.65-.65.38-.23.95-.23.58 0 1.09.33.51.32 1.19.7.67.37 1.59.7.91.32 2.31.32 1.1 0 1.89-.26.78-.26 1.3-.69.51-.42.75-.98.23-.57.23-1.17 0-.9-.53-1.47-.54-.58-1.43-1-.89-.43-2.02-.76-1.14-.34-2.33-.74-1.19-.4-2.32-.94-1.14-.54-2.03-1.36-.89-.83-1.42-2.03-.54-1.2-.54-2.9 0-1.57.62-3 .63-1.42 1.84-2.48 1.21-1.07 3.03-1.7 1.81-.64 4.18-.64 2.65 0 4.83.87 2.17.88 3.62 2.3Zm21.98 0-1.4 2.23q-.25.4-.53.56-.27.16-.7.16-.45 0-.96-.25t-1.19-.56q-.67-.31-1.53-.56-.87-.25-2.04-.25-1.83 0-2.86.77-1.04.78-1.04 2.03 0 .82.54 1.39.53.56 1.42.98.89.43 2.01.77 1.13.33 2.29.73 1.16.4 2.29.92 1.12.51 2.01 1.3.89.78 1.43 1.88.53 1.1.53 2.65 0 1.85-.66 3.42-.66 1.56-1.96 2.7-1.3 1.13-3.21 1.77-1.92.64-4.42.64-1.32 0-2.58-.24-1.27-.24-2.43-.66-1.16-.43-2.15-1-.99-.58-1.74-1.25l1.43-2.35q.27-.43.65-.65.37-.23.95-.23.57 0 1.09.33.51.32 1.18.7.68.37 1.59.7.91.32 2.31.32 1.1 0 1.89-.26.79-.26 1.3-.69.51-.42.75-.98.24-.57.24-1.17 0-.9-.54-1.47-.54-.58-1.42-1-.89-.43-2.03-.76-1.14-.34-2.32-.74-1.19-.4-2.33-.94-1.14-.54-2.02-1.36-.89-.83-1.43-2.03-.54-1.2-.54-2.9 0-1.57.63-3 .62-1.42 1.84-2.48 1.21-1.07 3.02-1.7 1.81-.64 4.19-.64 2.65 0 4.82.87 2.18.88 3.63 2.3Zm9.8 7.1h11.65q0-1.2-.34-2.26-.34-1.06-1.01-1.86-.68-.8-1.71-1.26-1.04-.47-2.42-.47-2.67 0-4.21 1.53t-1.96 4.32Zm15.75 3.73h-15.88q.15 1.97.7 3.41.55 1.44 1.45 2.38.9.93 2.14 1.4 1.24.46 2.74.46 1.5 0 2.59-.35 1.08-.35 1.9-.78.81-.42 1.42-.77.61-.35 1.19-.35.77 0 1.15.57l1.77 2.25q-1.02 1.2-2.3 2.02-1.27.81-2.66 1.3-1.39.48-2.82.69-1.44.2-2.79.2-2.68 0-4.98-.89-2.3-.89-4-2.63-1.7-1.74-2.67-4.3-.98-2.56-.98-5.94 0-2.62.85-4.93.85-2.32 2.44-4.03 1.59-1.71 3.88-2.71 2.28-1 5.16-1 2.42 0 4.47.77 2.05.78 3.53 2.27 1.47 1.48 2.31 3.65.84 2.16.84 4.93 0 1.4-.3 1.89t-1.15.49Zm22-13.6h6.17v25.65h-3.77q-1.23 0-1.55-1.13l-.43-2.05q-1.57 1.6-3.47 2.59-1.9.99-4.48.99-2.1 0-3.71-.71-1.61-.72-2.71-2.02-1.1-1.3-1.66-3.08-.57-1.79-.57-3.94v-16.3h6.18v16.3q0 2.35 1.09 3.64 1.08 1.29 3.26 1.29 1.6 0 3-.72 1.4-.71 2.65-1.96v-18.55Zm18.45 25.65h-6.18v-25.65h3.78q1.2 0 1.57 1.12l.4 1.9q.68-.75 1.42-1.37.73-.63 1.57-1.08.84-.45 1.8-.71.96-.26 2.11-.26 2.43 0 3.99 1.31t2.34 3.49q.6-1.28 1.5-2.19.9-.91 1.97-1.49 1.08-.57 2.29-.85 1.21-.27 2.44-.27 2.12 0 3.77.65t2.78 1.9q1.12 1.25 1.71 3.05.59 1.8.59 4.13v16.32h-6.18v-16.32q0-2.46-1.07-3.69-1.08-1.24-3.15-1.24-.95 0-1.76.32-.82.33-1.43.94-.61.61-.96 1.54-.35.92-.35 2.13v16.32h-6.2v-16.32q0-2.58-1.04-3.76-1.04-1.17-3.04-1.17-1.35 0-2.51.66-1.16.66-2.16 1.81v18.78Z"/></svg>