<svg xmlns="http://www.w3.org/2000/svg" width="400" height="300" viewBox="0 0 400 300"><rect width="100%" height="100%" fill="#DDDDDD"/><path fill="#808080" d="M101.54 96.465v88.93H84.93v-88.93h16.61Zm38.5 89.91q-8.24 0-12.64-4.64t-4.4-12.82v-35.24h-6.46q-1.23 0-2.09-.8-.86-.8-.86-2.4v-6.03l10.15-1.66 3.2-17.22q.31-1.23 1.17-1.9.86-.68 2.21-.68h7.87v19.86h16.85v10.83h-16.85v34.19q0 2.95 1.45 4.62 1.44 1.66 3.96 1.66 1.42 0 2.37-.34.96-.34 1.66-.71.71-.37 1.26-.71.56-.34 1.11-.34.68 0 1.11.34.43.34.92 1.02l4.55 7.38q-3.32 2.77-7.63 4.18-4.3 1.41-8.91 1.41Zm58.05-17.28v-10.64q-6.58.31-11.07 1.14-4.49.83-7.19 2.12-2.71 1.29-3.88 3.02-1.17 1.72-1.17 3.75 0 4 2.37 5.72 2.37 1.72 6.18 1.72 4.68 0 8.09-1.69t6.67-5.14Zm-32.1-33.15-2.71-4.85q10.89-9.97 26.2-9.97 5.54 0 9.9 1.82 4.37 1.81 7.38 5.04 3.02 3.23 4.59 7.72 1.56 4.49 1.56 9.84v39.85h-6.88q-2.16 0-3.32-.65-1.17-.64-1.85-2.61l-1.35-4.55q-2.4 2.15-4.68 3.78-2.27 1.63-4.73 2.74-2.46 1.11-5.26 1.69-2.8.58-6.18.58-4 0-7.38-1.07-3.38-1.08-5.84-3.23t-3.82-5.35q-1.35-3.2-1.35-7.44 0-2.4.8-4.77.8-2.37 2.61-4.52 1.82-2.15 4.71-4.06 2.89-1.9 7.1-3.32 4.21-1.41 9.81-2.31 5.6-.89 12.79-1.07v-3.69q0-6.34-2.7-9.38-2.71-3.04-7.81-3.04-3.69 0-6.12.86t-4.28 1.93q-1.84 1.08-3.35 1.94-1.51.86-3.35.86-1.6 0-2.71-.83-1.1-.83-1.78-1.94Zm61.38-41.94h15.19v91.39h-15.19v-91.39Zm75.52 28.29h12.18l-34.38 80.44q-.68 1.6-1.75 2.43-1.08.83-3.3.83h-11.31l11.81-25.34-25.53-58.36h13.35q1.78 0 2.8.86 1.01.86 1.51 1.97l13.4 32.72q.68 1.66 1.14 3.32.46 1.66.89 3.38.55-1.72 1.11-3.41.55-1.69 1.23-3.35l12.67-32.66q.49-1.23 1.63-2.03 1.13-.8 2.55-.8Z"/></svg>