<svg xmlns="http://www.w3.org/2000/svg" width="400" height="300" viewBox="0 0 400 300"><rect width="100%" height="100%" fill="#DDDDDD"/><path fill="#808080" d="M102.57 108.7v34.24h3.56q2.14 0 3.56-.59 1.41-.6 2.43-1.9l22.54-28.53q1.41-1.81 2.96-2.51 1.56-.71 3.93-.71h13.11l-27.52 33.96q-2.43 3.11-5.02 4.4 1.86.68 3.36 1.9 1.49 1.21 2.85 3.19l28.36 38.25H143.3q-2.71 0-4.04-.76-1.32-.77-2.23-2.23l-23.11-30.18q-1.07-1.52-2.48-2.14-1.42-.62-4.07-.62h-4.8v35.93h-15.2v-81.7h15.2Zm96.05 23.73h13.95v57.97h-8.53q-2.77 0-3.5-2.54l-.96-4.64q-3.56 3.62-7.86 5.85-4.29 2.23-10.11 2.23-4.75 0-8.39-1.61-3.64-1.61-6.13-4.54-2.49-2.94-3.76-6.98-1.27-4.04-1.27-8.9v-36.84h13.96v36.84q0 5.31 2.45 8.22 2.46 2.91 7.38 2.91 3.61 0 6.78-1.61 3.16-1.61 5.99-4.44v-41.92Zm47.06 58.87q-7.57 0-11.61-4.26-4.04-4.27-4.04-11.78v-32.38h-5.93q-1.13 0-1.92-.73-.79-.74-.79-2.2v-5.54l9.32-1.53 2.94-15.82q.28-1.13 1.07-1.75.79-.62 2.03-.62h7.24v18.25h15.48v9.94h-15.48v31.42q0 2.71 1.32 4.23 1.33 1.53 3.65 1.53 1.3 0 2.17-.31.88-.31 1.53-.65t1.16-.65q.51-.31 1.01-.31.63 0 1.02.31.4.31.85.93l4.18 6.78q-3.05 2.54-7.01 3.84-3.95 1.3-8.19 1.3Zm53.34-15.87v-9.78q-6.05.29-10.17 1.05-4.13.76-6.61 1.95-2.49 1.18-3.56 2.77-1.08 1.58-1.08 3.44 0 3.67 2.18 5.26 2.17 1.58 5.68 1.58 4.29 0 7.43-1.55 3.13-1.56 6.13-4.72Zm-29.5-30.46-2.48-4.46q10-9.15 24.07-9.15 5.08 0 9.09 1.66 4.02 1.67 6.78 4.64 2.77 2.96 4.21 7.09 1.44 4.12 1.44 9.04v36.61h-6.32q-1.98 0-3.06-.59-1.07-.6-1.69-2.4l-1.24-4.19q-2.21 1.98-4.3 3.48t-4.35 2.51q-2.26 1.02-4.83 1.56-2.57.53-5.68.53-3.67 0-6.78-.98-3.1-.99-5.36-2.97-2.26-1.98-3.51-4.92-1.24-2.93-1.24-6.83 0-2.21.73-4.38.74-2.18 2.41-4.15 1.66-1.98 4.32-3.73 2.65-1.76 6.52-3.05 3.87-1.3 9.01-2.12 5.15-.82 11.76-.99v-3.39q0-5.82-2.49-8.62-2.48-2.79-7.17-2.79-3.39 0-5.63.79-2.23.79-3.92 1.78-1.7.98-3.08 1.78-1.39.79-3.08.79-1.47 0-2.49-.77-1.01-.76-1.64-1.78Z"/></svg>