<svg xmlns="http://www.w3.org/2000/svg" width="400" height="300" viewBox="0 0 400 300"><rect width="100%" height="100%" fill="#DDDDDD"/><path fill="#808080" d="M87.28 149.14h3.36q1.52 0 2.65-.38t1.86-1.05q.73-.67 1.09-1.59.36-.92.36-2.02 0-2.2-1.45-3.38-1.45-1.18-4.43-1.18h-3.44v9.6Zm9.96 4.48 7.24 10.68h-4.86q-1.38 0-2-1.08l-6.08-9.26q-.34-.52-.75-.74-.41-.22-1.21-.22h-2.3v11.3H81.9v-28.92h8.82q2.94 0 5.05.61t3.46 1.71q1.35 1.1 1.99 2.63.64 1.53.64 3.37 0 1.46-.43 2.76-.43 1.3-1.24 2.36-.81 1.06-2 1.86t-2.71 1.26q.52.3.96.71.44.41.8.97Zm18.68-10.16q2.28 0 4.15.74 1.87.74 3.2 2.1t2.05 3.32q.72 1.96.72 4.38 0 2.44-.72 4.4-.72 1.96-2.05 3.34-1.33 1.38-3.2 2.12-1.87.74-4.15.74-2.3 0-4.18-.74t-3.21-2.12q-1.33-1.38-2.06-3.34t-.73-4.4q0-2.42.73-4.38t2.06-3.32q1.33-1.36 3.21-2.1t4.18-.74Zm0 17.34q2.56 0 3.79-1.72t1.23-5.04q0-3.32-1.23-5.06-1.23-1.74-3.79-1.74-2.6 0-3.85 1.75t-1.25 5.05q0 3.3 1.25 5.03 1.25 1.73 3.85 1.73Zm18.84 3.5h-4.94v-20.52h3.02q.96 0 1.26.9l.32 1.52q.54-.6 1.13-1.1.59-.5 1.26-.86t1.44-.57q.77-.21 1.69-.21 1.94 0 3.19 1.05t1.87 2.79q.48-1.02 1.2-1.75t1.58-1.19q.86-.46 1.83-.68.97-.22 1.95-.22 1.7 0 3.02.52t2.22 1.52q.9 1 1.37 2.44.47 1.44.47 3.3v13.06h-4.94v-13.06q0-1.96-.86-2.95-.86-.99-2.52-.99-.76 0-1.41.26-.65.26-1.14.75-.49.49-.77 1.23t-.28 1.7v13.06h-4.96v-13.06q0-2.06-.83-3t-2.43-.94q-1.08 0-2.01.53-.93.53-1.73 1.45v15.02Zm39.4-5.3v-3.46q-2.14.1-3.6.37t-2.34.69q-.88.42-1.26.98t-.38 1.22q0 1.3.77 1.86t2.01.56q1.52 0 2.63-.55 1.11-.55 2.17-1.67Zm-10.44-10.78-.88-1.58q3.54-3.24 8.52-3.24 1.8 0 3.22.59 1.42.59 2.4 1.64.98 1.05 1.49 2.51.51 1.46.51 3.2v12.96h-2.24q-.7 0-1.08-.21-.38-.21-.6-.85l-.44-1.48q-.78.7-1.52 1.23t-1.54.89q-.8.36-1.71.55-.91.19-2.01.19-1.3 0-2.4-.35-1.1-.35-1.9-1.05-.8-.7-1.24-1.74-.44-1.04-.44-2.42 0-.78.26-1.55t.85-1.47q.59-.7 1.53-1.32.94-.62 2.31-1.08 1.37-.46 3.19-.75 1.82-.29 4.16-.35v-1.2q0-2.06-.88-3.05-.88-.99-2.54-.99-1.2 0-1.99.28t-1.39.63q-.6.35-1.09.63-.49.28-1.09.28-.52 0-.88-.27t-.58-.63Zm24.18-3.54.34 1.62q.62-.62 1.31-1.15.69-.53 1.46-.9t1.65-.58q.88-.21 1.92-.21 1.68 0 2.98.57t2.17 1.6q.87 1.03 1.32 2.46.45 1.43.45 3.15v13.06h-4.94v-13.06q0-1.88-.86-2.91-.86-1.03-2.62-1.03-1.28 0-2.4.58-1.12.58-2.12 1.58v14.84h-4.94v-20.52h3.02q.96 0 1.26.9Zm37.3-5.02h-12.84v8.56h10.84v4.3h-10.84v11.78h-5.4v-28.92h18.24v4.28Zm12.7 3.8q2.28 0 4.15.74 1.87.74 3.2 2.1t2.05 3.32q.72 1.96.72 4.38 0 2.44-.72 4.4-.72 1.96-2.05 3.34-1.33 1.38-3.2 2.12-1.87.74-4.15.74-2.3 0-4.18-.74t-3.21-2.12q-1.33-1.38-2.06-3.34t-.73-4.4q0-2.42.73-4.38t2.06-3.32q1.33-1.36 3.21-2.1t4.18-.74Zm0 17.34q2.56 0 3.79-1.72t1.23-5.04q0-3.32-1.23-5.06-1.23-1.74-3.79-1.74-2.6 0-3.85 1.75t-1.25 5.05q0 3.3 1.25 5.03 1.25 1.73 3.85 1.73Zm18.26-15.78.3 2.32q.96-1.84 2.28-2.89 1.32-1.05 3.12-1.05 1.42 0 2.28.62l-.32 3.7q-.1.36-.29.51-.19.15-.51.15-.3 0-.89-.1-.59-.1-1.15-.1-.82 0-1.46.24t-1.15.69q-.51.45-.9 1.09-.39.64-.73 1.46v12.64h-4.94v-20.52h2.9q.76 0 1.06.27.3.27.4.97Zm23.3-1.24h4.94v20.52h-3.02q-.98 0-1.24-.9l-.34-1.64q-1.26 1.28-2.78 2.07-1.52.79-3.58.79-1.68 0-2.97-.57-1.29-.57-2.17-1.61-.88-1.04-1.33-2.47-.45-1.43-.45-3.15v-13.04h4.94v13.04q0 1.88.87 2.91.87 1.03 2.61 1.03 1.28 0 2.4-.57 1.12-.57 2.12-1.57v-14.84Zm14.76 20.52h-4.94v-20.52h3.02q.96 0 1.26.9l.32 1.52q.54-.6 1.13-1.1.59-.5 1.26-.86t1.44-.57q.77-.21 1.69-.21 1.94 0 3.19 1.05t1.87 2.79q.48-1.02 1.2-1.75t1.58-1.19q.86-.46 1.83-.68.97-.22 1.95-.22 1.7 0 3.02.52t2.22 1.52q.9 1 1.37 2.44.47 1.44.47 3.3v13.06h-4.94v-13.06q0-1.96-.86-2.95-.86-.99-2.52-.99-.76 0-1.41.26-.65.26-1.14.75-.49.49-.77 1.23t-.28 1.7v13.06h-4.96v-13.06q0-2.06-.83-3t-2.43-.94q-1.08 0-2.01.53-.93.53-1.73 1.45v15.02Z"/></svg>