<svg xmlns="http://www.w3.org/2000/svg" width="400" height="300" viewBox="0 0 400 300"><rect width="100%" height="100%" fill="#DDDDDD"/><path fill="#808080" d="M97.33 148.02h7.81q3.53 0 6.16-.88 2.63-.88 4.32-2.44 1.7-1.56 2.54-3.7.84-2.14.84-4.69 0-5.12-3.38-7.86-3.37-2.75-10.3-2.75h-7.99v22.32Zm23.15 10.42 16.84 24.83h-11.3q-3.21 0-4.65-2.51l-14.14-21.53q-.79-1.21-1.74-1.72-.96-.51-2.82-.51h-5.34v26.27H84.82v-67.24h20.5q6.84 0 11.75 1.42 4.9 1.42 8.04 3.98 3.14 2.55 4.63 6.11 1.48 3.56 1.48 7.83 0 3.4-.99 6.42-1 3.02-2.89 5.49-1.88 2.46-4.65 4.32-2.76 1.86-6.3 2.93 1.21.7 2.23 1.65 1.03.96 1.86 2.26Zm43.43-23.62q5.31 0 9.65 1.72 4.35 1.72 7.44 4.88 3.1 3.16 4.77 7.72 1.67 4.56 1.67 10.18 0 5.68-1.67 10.23-1.67 4.56-4.77 7.77-3.09 3.21-7.44 4.93-4.34 1.72-9.65 1.72-5.34 0-9.71-1.72-4.38-1.72-7.47-4.93t-4.79-7.77q-1.69-4.55-1.69-10.23 0-5.62 1.69-10.18 1.7-4.56 4.79-7.72t7.47-4.88q4.37-1.72 9.71-1.72Zm0 40.31q5.96 0 8.82-4 2.86-4 2.86-11.71 0-7.72-2.86-11.77-2.86-4.04-8.82-4.04-6.04 0-8.95 4.06-2.9 4.07-2.9 11.75 0 7.67 2.9 11.69 2.91 4.02 8.95 4.02Zm43.81 8.14h-11.49v-47.71h7.02q2.24 0 2.93 2.09l.75 3.54q1.25-1.4 2.62-2.56 1.38-1.16 2.93-2 1.56-.84 3.35-1.32 1.79-.49 3.93-.49 4.51 0 7.42 2.44 2.9 2.44 4.35 6.49 1.11-2.38 2.79-4.07 1.67-1.7 3.67-2.77t4.25-1.58q2.26-.51 4.54-.51 3.95 0 7.02 1.21 3.07 1.21 5.16 3.53 2.09 2.33 3.19 5.67 1.09 3.35 1.09 7.68v30.36h-11.49v-30.36q0-4.56-2-6.86-2-2.3-5.86-2.3-1.76 0-3.27.6-1.52.6-2.65 1.74-1.14 1.14-1.79 2.86-.66 1.72-.66 3.96v30.36h-11.53v-30.36q0-4.79-1.93-6.98-1.93-2.18-5.65-2.18-2.51 0-4.67 1.23t-4.02 3.37v34.92Zm75.47-29.34h21.67q0-2.23-.63-4.21t-1.89-3.46q-1.25-1.49-3.18-2.35-1.93-.86-4.49-.86-4.97 0-7.83 2.83-2.86 2.84-3.65 8.05Zm29.29 6.93h-29.53q.28 3.67 1.31 6.34 1.02 2.68 2.69 4.42 1.68 1.75 3.98 2.61 2.3.86 5.09.86t4.81-.65q2.03-.66 3.54-1.45 1.51-.79 2.65-1.44 1.14-.65 2.21-.65 1.44 0 2.14 1.07l3.3 4.19q-1.91 2.23-4.28 3.74-2.37 1.51-4.95 2.42-2.58.9-5.26 1.28-2.67.37-5.18.37-4.98 0-9.26-1.65-4.27-1.65-7.44-4.89-3.16-3.23-4.97-7.99-1.81-4.77-1.81-11.05 0-4.88 1.58-9.18t4.53-7.49q2.95-3.18 7.21-5.04 4.25-1.86 9.6-1.86 4.51 0 8.32 1.44 3.82 1.44 6.56 4.21 2.74 2.76 4.3 6.79 1.56 4.02 1.56 9.18 0 2.6-.56 3.51-.56.91-2.14.91Z"/></svg>