<svg xmlns="http://www.w3.org/2000/svg" width="400" height="300" viewBox="0 0 400 300"><rect width="100%" height="100%" fill="#DDDDDD"/><path fill="#808080" d="m114.9 125.025-2.28 4.32q-.41.71-.87 1.03-.45.33-1.13.33-.72 0-1.55-.53-.83-.53-1.99-1.17-1.16-.65-2.7-1.18-1.55-.52-3.66-.52-1.9 0-3.33.46-1.43.46-2.4 1.27-.97.82-1.44 1.96-.48 1.14-.48 2.5 0 1.73.97 2.89.97 1.15 2.57 1.97 1.6.81 3.64 1.46 2.04.65 4.18 1.38 2.14.73 4.18 1.7 2.04.97 3.64 2.44 1.6 1.48 2.56 3.63.97 2.14.97 5.2 0 3.33-1.14 6.24-1.13 2.9-3.33 5.06-2.19 2.16-5.35 3.4-3.16 1.24-7.24 1.24-2.35 0-4.63-.45-2.28-.46-4.37-1.31-2.09-.85-3.92-2.04-1.84-1.19-3.27-2.66l2.69-4.38q.34-.48.88-.8.55-.32 1.16-.32.85 0 1.83.69.99.7 2.35 1.55 1.36.85 3.18 1.55 1.82.69 4.37.69 3.91 0 6.05-1.85 2.14-1.85 2.14-5.32 0-1.94-.97-3.16-.97-1.23-2.56-2.06-1.6-.83-3.64-1.41t-4.15-1.26q-2.11-.68-4.15-1.63-2.04-.95-3.64-2.48-1.59-1.53-2.56-3.83-.97-2.29-.97-5.66 0-2.68 1.07-5.23 1.07-2.55 3.11-4.53 2.04-1.97 5.03-3.16 2.99-1.19 6.87-1.19 4.35 0 8.02 1.36 3.68 1.36 6.26 3.81Zm15.91-5.98v19.38q2.04-1.91 4.49-3.1 2.45-1.19 5.75-1.19 2.85 0 5.06.97 2.21.97 3.69 2.72 1.48 1.75 2.24 4.18.77 2.43.77 5.36v22.2h-8.4v-22.2q0-3.2-1.46-4.95t-4.45-1.75q-2.18 0-4.08.99-1.91.98-3.61 2.68v25.23h-8.4v-50.52h8.4Zm30.23 15.64h8.43v34.88h-8.43v-34.88Zm9.59-10.17q0 1.09-.45 2.04-.44.95-1.17 1.67-.73.71-1.72 1.13-.98.43-2.1.43-1.09 0-2.06-.43-.97-.42-1.68-1.13-.72-.72-1.14-1.67-.43-.95-.43-2.04 0-1.12.43-2.11.42-.98 1.14-1.7.71-.71 1.68-1.14.97-.42 2.06-.42 1.12 0 2.1.42.99.43 1.72 1.14.73.72 1.17 1.7.45.99.45 2.11Zm15.81 20.37v15.64q1.42 1.73 3.11 2.44 1.68.72 3.55.72 1.94 0 3.48-.7 1.55-.7 2.64-2.18 1.09-1.47 1.67-3.77.57-2.29.57-5.49 0-5.75-1.9-8.31-1.9-2.57-5.47-2.57-2.42 0-4.22 1.1-1.8 1.11-3.43 3.12Zm0-25.84v19.92q2.1-2.21 4.67-3.52t5.87-1.31q3.02 0 5.45 1.19t4.15 3.42q1.72 2.23 2.64 5.39.91 3.16.91 7.1 0 4.25-1.05 7.72-1.05 3.47-3.01 5.93-1.95 2.47-4.71 3.83-2.75 1.36-6.12 1.36-1.63 0-2.96-.32-1.32-.33-2.44-.9-1.13-.58-2.06-1.42-.94-.83-1.79-1.85l-.37 2.35q-.2.88-.7 1.26-.49.37-1.34.37h-5.54v-50.52h8.4Zm51.85 15.64h8.39v34.88h-5.13q-1.67 0-2.11-1.53l-.58-2.79q-2.14 2.18-4.72 3.52-2.59 1.34-6.09 1.34-2.85 0-5.05-.97-2.19-.96-3.69-2.73-1.49-1.77-2.26-4.2-.76-2.43-.76-5.36v-22.16h8.4v22.16q0 3.2 1.47 4.95 1.48 1.75 4.44 1.75 2.18 0 4.08-.97 1.91-.97 3.61-2.67v-25.22Zm41.65 0h6.73l-19.01 44.47q-.37.88-.97 1.34-.59.46-1.82.46h-6.25l6.53-14.01-14.11-32.26h7.37q.99 0 1.55.47.56.48.83 1.09l7.42 18.09q.37.92.63 1.83.25.92.49 1.87.3-.95.61-1.88.31-.94.68-1.86l7-18.05q.28-.68.91-1.12.62-.44 1.41-.44Zm29.34 25.87v-5.88q-3.64.17-6.12.63-2.48.46-3.98 1.17t-2.14 1.67q-.65.95-.65 2.07 0 2.21 1.31 3.16 1.31.95 3.42.95 2.58 0 4.47-.93 1.89-.94 3.69-2.84Zm-17.75-18.33-1.5-2.68q6.02-5.51 14.49-5.51 3.06 0 5.47 1 2.42 1.01 4.08 2.79 1.67 1.79 2.54 4.27.86 2.48.86 5.44v22.03h-3.81q-1.19 0-1.83-.36-.65-.35-1.02-1.44l-.75-2.52q-1.33 1.19-2.58 2.09-1.26.9-2.62 1.52-1.36.61-2.91.93-1.55.32-3.42.32-2.21 0-4.08-.59-1.87-.6-3.23-1.79-1.36-1.19-2.1-2.95-.75-1.77-.75-4.12 0-1.32.44-2.63.44-1.31 1.45-2.5 1-1.19 2.6-2.25 1.59-1.05 3.92-1.83t5.43-1.28q3.09-.49 7.07-.59v-2.04q0-3.5-1.5-5.19-1.49-1.68-4.32-1.68-2.04 0-3.38.48-1.34.47-2.36 1.07l-1.85 1.07q-.84.47-1.86.47-.88 0-1.49-.46-.62-.45-.99-1.07Z"/></svg>