<svg xmlns="http://www.w3.org/2000/svg" width="400" height="300" viewBox="0 0 400 300"><rect width="100%" height="100%" fill="#DDDDDD"/><path fill="#808080" d="M130.275 112.565v9.5h-18.75v52.68h-11.57v-52.68h-18.74v-9.5h49.06Zm26.01 17.37q4.91 0 8.93 1.59 4.02 1.6 6.88 4.52 2.86 2.92 4.4 7.14 1.55 4.21 1.55 9.41 0 5.25-1.55 9.46-1.54 4.22-4.4 7.19-2.86 2.96-6.88 4.55-4.02 1.6-8.93 1.6-4.94 0-8.98-1.6-4.04-1.59-6.9-4.55-2.86-2.97-4.43-7.19-1.57-4.21-1.57-9.46 0-5.2 1.57-9.41 1.57-4.22 4.43-7.14 2.86-2.92 6.9-4.52 4.04-1.59 8.98-1.59Zm0 37.28q5.51 0 8.15-3.69 2.65-3.7 2.65-10.84t-2.65-10.88q-2.64-3.74-8.15-3.74-5.59 0-8.27 3.76-2.69 3.77-2.69 10.86 0 7.1 2.69 10.82 2.68 3.71 8.27 3.71Zm29.89-56.37h10.62v36.59h1.98q1.07 0 1.7-.27.62-.28 1.27-1.14l10.96-13.55q.69-.9 1.53-1.38.84-.47 2.17-.47h9.72l-13.72 16.38q-1.46 1.94-3.18 2.97.9.65 1.61 1.51.71.86 1.35 1.85l14.71 21.41h-9.59q-1.25 0-2.15-.41-.9-.41-1.5-1.48l-11.27-16.73q-.6-.99-1.25-1.29-.64-.3-1.93-.3h-2.41v20.21h-10.62v-63.9Zm77.53 19.78h8.51l-24.03 56.25q-.48 1.11-1.23 1.69-.75.59-2.3.59h-7.91l8.25-17.72-17.84-40.81h9.33q1.25 0 1.96.6.71.61 1.05 1.38l9.37 22.88q.48 1.16.8 2.32.32 1.16.62 2.36.39-1.2.78-2.38.38-1.19.86-2.35l8.85-22.83q.35-.86 1.14-1.42.8-.56 1.79-.56Zm33.32-.69q4.91 0 8.93 1.59 4.02 1.6 6.88 4.52 2.86 2.92 4.4 7.14 1.55 4.21 1.55 9.41 0 5.25-1.55 9.46-1.54 4.22-4.4 7.19-2.86 2.96-6.88 4.55-4.02 1.6-8.93 1.6-4.94 0-8.98-1.6-4.05-1.59-6.9-4.55-2.86-2.97-4.43-7.19-1.57-4.21-1.57-9.46 0-5.2 1.57-9.41 1.57-4.22 4.43-7.14 2.85-2.92 6.9-4.52 4.04-1.59 8.98-1.59Zm0 37.28q5.51 0 8.15-3.69 2.65-3.7 2.65-10.84t-2.65-10.88q-2.64-3.74-8.15-3.74-5.59 0-8.27 3.76-2.69 3.77-2.69 10.86 0 7.1 2.69 10.82 2.68 3.71 8.27 3.71Z"/></svg>