<svg xmlns="http://www.w3.org/2000/svg" width="400" height="300" viewBox="0 0 400 300"><rect width="100%" height="100%" fill="#DDDDDD"/><path fill="#808080" d="M115.4 175.645q3.87 0 6.91-1.29t5.12-3.61q2.08-2.33 3.2-5.65 1.11-3.31 1.11-7.42v-42.87h13.31v42.87q0 6.39-2.05 11.81-2.05 5.42-5.89 9.35-3.84 3.94-9.33 6.14-5.5 2.2-12.38 2.2-6.93 0-12.42-2.2t-9.33-6.14q-3.84-3.93-5.89-9.35-2.06-5.42-2.06-11.81v-42.87h13.32v42.82q0 4.11 1.11 7.43 1.12 3.31 3.22 5.66t5.15 3.64q3.04 1.29 6.9 1.29Zm55-25.2v22.77q2.08 2.53 4.53 3.57t5.17 1.04q2.82 0 5.07-1.02 2.26-1.01 3.84-3.17 1.58-2.15 2.43-5.49.84-3.34.84-8 0-8.36-2.77-12.1-2.78-3.74-7.97-3.74-3.52 0-6.14 1.61-2.63 1.61-5 4.53Zm0-37.62v29.01q3.07-3.22 6.81-5.12 3.73-1.91 8.53-1.91 4.41 0 7.95 1.73 3.54 1.74 6.04 4.98t3.83 7.84q1.34 4.61 1.34 10.35 0 6.19-1.53 11.24-1.54 5.04-4.38 8.63-2.85 3.59-6.86 5.57-4.01 1.98-8.91 1.98-2.38 0-4.31-.47-1.93-.47-3.56-1.31-1.63-.84-3-2.05-1.36-1.22-2.59-2.7l-.55 3.41q-.3 1.29-1.01 1.84-.72.54-1.96.54h-8.07v-73.56h12.23Zm75.49 22.77h12.22v50.79h-7.47q-2.43 0-3.07-2.23l-.84-4.06q-3.12 3.17-6.88 5.13-3.76 1.95-8.86 1.95-4.16 0-7.35-1.41-3.2-1.41-5.37-3.98-2.18-2.58-3.3-6.12-1.11-3.54-1.11-7.79v-32.28h12.23v32.28q0 4.65 2.15 7.2t6.46 2.55q3.17 0 5.94-1.41 2.77-1.41 5.25-3.89v-36.73Zm56.18 35.74v-22.77q-2.08-2.52-4.53-3.56t-5.27-1.04q-2.77 0-5 1.04t-3.81 3.14q-1.59 2.1-2.43 5.35-.84 3.24-.84 7.64 0 4.46.72 7.55.72 3.1 2.05 5.05 1.34 1.96 3.27 2.82 1.93.87 4.31.87 3.81 0 6.48-1.58 2.67-1.59 5.05-4.51Zm0-58.51h12.23v73.56h-7.48q-2.42 0-3.07-2.23l-1.04-4.9q-3.07 3.52-7.05 5.69-3.99 2.18-9.28 2.18-4.16 0-7.63-1.73-3.46-1.73-5.96-5.02-2.5-3.3-3.86-8.15-1.36-4.85-1.36-11.09 0-5.64 1.53-10.49 1.54-4.85 4.41-8.41 2.87-3.57 6.88-5.57 4.01-2.01 9.01-2.01 4.25 0 7.27 1.34 3.02 1.34 5.4 3.61v-26.78Z"/></svg>