<svg xmlns="http://www.w3.org/2000/svg" width="400" height="300" viewBox="0 0 400 300"><rect width="100%" height="100%" fill="#DDDDDD"/><path fill="#808080" d="M127.22 121.875h8.57l-23.07 57.12h-9.6l-23.06-57.12h8.53q1.38 0 2.25.67.87.68 1.3 1.74l13.47 34.84q.67 1.7 1.29 3.73.61 2.04 1.16 4.25.48-2.21 1.03-4.25.55-2.03 1.22-3.73l13.39-34.84q.32-.91 1.25-1.66.93-.75 2.27-.75Zm20.66 32.2h18.41q0-1.9-.54-3.58-.53-1.68-1.6-2.94-1.06-1.27-2.7-2-1.64-.73-3.82-.73-4.22 0-6.65 2.41-2.43 2.41-3.1 6.84Zm24.88 5.88h-25.08q.24 3.12 1.11 5.39.87 2.27 2.29 3.76 1.42 1.48 3.37 2.21 1.96.73 4.33.73t4.09-.55q1.72-.56 3-1.23 1.28-.67 2.25-1.22.97-.56 1.88-.56 1.22 0 1.82.91l2.8 3.56q-1.62 1.89-3.63 3.18-2.02 1.28-4.21 2.05-2.19.77-4.46 1.09-2.28.31-4.41.31-4.23 0-7.86-1.4t-6.32-4.15q-2.69-2.74-4.23-6.79-1.54-4.05-1.54-9.38 0-4.15 1.35-7.8 1.34-3.66 3.85-6.36 2.51-2.71 6.12-4.29 3.61-1.58 8.16-1.58 3.83 0 7.07 1.23 3.24 1.22 5.57 3.57 2.33 2.35 3.65 5.77 1.32 3.41 1.32 7.8 0 2.21-.47 2.98t-1.82.77Zm18.05-19.71.68 3.2q1.22-1.22 2.58-2.27 1.37-1.05 2.89-1.78t3.26-1.14q1.73-.42 3.79-.42 3.32 0 5.88 1.13 2.57 1.12 4.29 3.16 1.72 2.03 2.61 4.86.88 2.82.88 6.22v25.79h-9.75v-25.79q0-3.72-1.7-5.75-1.7-2.04-5.17-2.04-2.53 0-4.74 1.15-2.22 1.15-4.19 3.12v29.31h-9.76v-40.53h5.97q1.89 0 2.48 1.78Zm36.42-1.78h9.8v40.53h-9.8v-40.53Zm11.14-11.81q0 1.27-.51 2.37-.51 1.11-1.36 1.94-.85.83-2 1.32-1.14.49-2.45.49-1.26 0-2.39-.49-1.12-.49-1.95-1.32-.83-.83-1.33-1.94-.49-1.1-.49-2.37 0-1.3.49-2.45.5-1.14 1.33-1.97.83-.83 1.95-1.32 1.13-.5 2.39-.5 1.31 0 2.45.5 1.15.49 2 1.32.85.83 1.36 1.97.51 1.15.51 2.45Zm40.21 16.83-2.56 3.55q-.44.56-.85.87-.42.32-1.21.32-.75 0-1.46-.45-.71-.46-1.7-1.03-.99-.57-2.35-1.03-1.36-.45-3.38-.45-2.56 0-4.5.93-1.93.92-3.22 2.66-1.28 1.74-1.91 4.21-.64 2.47-.64 5.59 0 3.24.7 5.76.69 2.53 1.99 4.25 1.3 1.72 3.16 2.61 1.86.89 4.19.89t3.77-.58q1.44-.57 2.43-1.26.99-.69 1.72-1.26.73-.58 1.64-.58 1.18 0 1.77.91l2.81 3.56q-1.62 1.89-3.52 3.18-1.89 1.28-3.93 2.05-2.03.77-4.18 1.09-2.16.31-4.29.31-3.75 0-7.07-1.4-3.32-1.4-5.81-4.09-2.49-2.68-3.93-6.57-1.44-3.9-1.44-8.87 0-4.47 1.28-8.28 1.29-3.81 3.78-6.59 2.49-2.79 6.16-4.37t8.45-1.58q4.54 0 7.96 1.46t6.14 4.19Zm14.18 10.59h18.41q0-1.9-.53-3.58-.54-1.68-1.6-2.94-1.07-1.27-2.71-2t-3.81-.73q-4.23 0-6.66 2.41-2.42 2.41-3.1 6.84Zm24.89 5.88h-25.08q.23 3.12 1.1 5.39.87 2.27 2.29 3.76 1.43 1.48 3.38 2.21 1.96.73 4.33.73t4.08-.55q1.72-.56 3.01-1.23 1.28-.67 2.25-1.22.97-.56 1.87-.56 1.23 0 1.82.91l2.81 3.56q-1.62 1.89-3.64 3.18-2.01 1.28-4.21 2.05-2.19.77-4.46 1.09-2.27.31-4.4.31-4.23 0-7.86-1.4-3.64-1.4-6.32-4.15-2.69-2.74-4.23-6.79-1.54-4.05-1.54-9.38 0-4.15 1.34-7.8 1.35-3.66 3.85-6.36 2.51-2.71 6.13-4.29 3.61-1.58 8.15-1.58 3.83 0 7.07 1.23 3.24 1.22 5.57 3.57 2.33 2.35 3.66 5.77 1.32 3.41 1.32 7.8 0 2.21-.47 2.98-.48.77-1.82.77Z"/></svg>